<svg
   xmlns="http://www.w3.org/2000/svg"
   width="149.43675mm"
   height="142.6846mm"
   viewBox="0 0 149.43676 142.6846"
   version="1.1">
  <g transform="translate(22.200104,-10.906609)">
    <path
       style="fill:#8181ff;stroke:#8181ff;stroke-width:12.827;stroke-miterlimit:4;"
       d="m 16.654778,151.14386 c -1.649747,-0.95248 3.874902,-45.7828 3.100084,-47.52307 -0.774818,-1.74027 -37.786951,-27.631995 -37.390887,-29.49533 0.396064,-1.863335 44.739442,-10.462412 46.155106,-11.737081 1.415663,-1.274669 14.60278,-44.476282 16.497307,-44.675405 1.894528,-0.199123 23.775593,39.316674 25.42534,40.269156 1.649746,0.952482 46.811962,0.144142 47.586782,1.884413 0.77482,1.74027 -30.045316,34.761453 -30.44138,36.624788 -0.396064,1.863335 14.32861,44.565369 12.91294,45.840039 -1.415662,1.27467 -42.344618,-17.83292 -44.239146,-17.6338 -1.894527,0.19913 -37.9564,27.39877 -39.606146,26.44629 z"
       transform="rotate(6.0145054,52.512745,89.036042)"
       />
  </g>
</svg>
